<?xml version="1.0" encoding="UTF-8"?><svg id="Layer_2" xmlns="http://www.w3.org/2000/svg" viewBox="0 0 100.01 108.19"><defs><style>.cls-1{fill:#04d446;}.cls-2{fill:#fdc900;}.cls-3{fill:#fd3d57;}</style></defs><g id="OBJECTS"><g><path class="cls-1" d="M66.38,101.41h0c-9.04,9.04-23.69,9.04-32.72,0L0,67.76H0c9.04-9.04,23.69-9.05,32.73,0,14.04,14.04,32.1,32.1,33.65,33.65Z"/><path class="cls-2" d="M73.69,94.1h0c-2.31-2.32-29.27-29.26-47.36-47.37-9.01-9.02-9-23.62,.02-32.63h0c7.21,7.21,30.59,30.59,47.35,47.35,9.02,9.02,9.01,23.63,0,32.65Z"/><path class="cls-3" d="M100.01,40.43h0c-9.03,9.04-23.67,9.05-32.7,.02C53.27,26.4,35.2,8.33,33.65,6.78h0c9.04-9.04,23.68-9.04,32.72,0,12.37,12.38,27.34,27.35,33.64,33.65Z"/></g></g></svg>